<?xml version="1.0" encoding="utf-8"?>
<!-- Generator: Adobe Illustrator 26.0.3, SVG Export Plug-In . SVG Version: 6.00 Build 0)  -->
<svg version="1.0" id="katman_1" xmlns="http://www.w3.org/2000/svg" xmlns:xlink="http://www.w3.org/1999/xlink" x="0px" y="0px"
	 viewBox="0 0 800 600" style="enable-background:new 0 0 800 600;" xml:space="preserve">
<style type="text/css">
	.st0{fill:#FFFFFF;}
	.st1{fill:#326DE5;}
</style>
<path class="st0" d="M231.7,154.5h335.2v377.2H231.7V154.5z"/>
<path d="M496.9,123.4c0.7,0,1.4,0,2-0.1c0.6,0,1.1-0.1,1.5-0.2v-14.6c-0.5-0.4-1.1-0.6-2-0.9c-0.9-0.2-1.6-0.4-2.5-0.4
	c-3.8,0-5.7,2.6-5.7,7.8c0,2.5,0.6,4.5,1.7,6.1C492.9,122.5,494.6,123.4,496.9,123.4z M336.3,110.4c-0.2-0.6-0.5-1.2-0.9-1.7
	c-0.4-0.5-1-0.9-1.6-1.2c-0.6-0.4-1.4-0.5-2.3-0.5c-0.9,0-1.7,0.1-2.3,0.5c-0.6,0.2-1.2,0.7-1.6,1.2c-0.5,0.5-0.7,1.1-1,1.7
	c-0.2,0.6-0.4,1.4-0.5,2h10.6C336.5,111.8,336.4,111,336.3,110.4z M468.9,110.4c-0.2-0.6-0.5-1.2-0.9-1.7c-0.4-0.5-1-0.9-1.6-1.2
	c-0.6-0.4-1.4-0.5-2.3-0.5c-0.9,0-1.7,0.1-2.3,0.5c-0.6,0.2-1.2,0.7-1.6,1.2c-0.5,0.5-0.7,1.1-1,1.7c-0.2,0.6-0.4,1.4-0.5,2h10.6
	C469.2,111.8,469,111,468.9,110.4z"/>
<path d="M295.3,126c1.2,1.4,2.7,2.4,4.6,3.2c1.9,0.7,4.1,1.1,6.7,1.1c1.7,0,3.2-0.1,4.7-0.5c1.4-0.2,2.6-0.6,3.5-1l-1.1-6.6
	c-1,0.4-2,0.7-3.1,0.9c-1.1,0.1-2.2,0.2-3.1,0.2c-2.7,0-4.7-0.7-5.8-2.1c-1.1-1.4-1.6-3.3-1.6-5.9c0-2.5,0.6-4.3,1.7-5.8
	c1.1-1.5,3-2.2,5.3-2.2c1.1,0,2.1,0.1,3.1,0.4c0.9,0.2,1.7,0.5,2.5,0.7l1.7-6.4c-1.2-0.5-2.5-0.9-3.7-1.1c-1.2-0.2-2.6-0.4-4.2-0.4
	c-2.3,0-4.3,0.4-6.2,1.2c-1.9,0.7-3.3,1.9-4.6,3.2c-1.2,1.4-2.2,3-2.8,4.8c-0.6,1.9-1,3.7-1,5.8c0,2.1,0.2,4.1,0.9,5.9
	C293.2,123,294.1,124.6,295.3,126z M321.3,126c1.2,1.4,2.8,2.4,4.7,3.1c1.9,0.7,4.1,1.1,6.7,1.1c1,0,2,0,3.1-0.1
	c1-0.1,2-0.2,2.8-0.4c0.9-0.1,1.7-0.4,2.5-0.6c0.7-0.2,1.4-0.5,1.7-0.6l-1.1-6.6c-0.9,0.4-2.1,0.7-3.5,1c-1.5,0.2-2.8,0.4-4.3,0.4
	c-2.3,0-4.2-0.5-5.6-1.5c-1.4-1-2.1-2.4-2.3-4h18.3c0-0.5,0.1-1,0.1-1.5v-1.5c0-4.8-1.1-8.4-3.5-10.9c-2.3-2.5-5.6-3.7-9.6-3.7
	c-1.7,0-3.5,0.4-5.1,1c-1.6,0.6-3.1,1.6-4.3,2.8c-1.2,1.2-2.2,2.8-3.1,4.7c-0.7,1.9-1.1,4.1-1.1,6.7c0,2.1,0.2,4.1,0.9,5.8
	C319.1,123.1,320.1,124.7,321.3,126z M326.4,110.4c0.2-0.6,0.6-1.2,1-1.7c0.5-0.5,1-0.9,1.6-1.2c0.6-0.2,1.5-0.5,2.3-0.5
	c1,0,1.7,0.1,2.3,0.5c0.6,0.4,1.1,0.7,1.6,1.2c0.4,0.5,0.7,1.1,0.9,1.7c0.2,0.6,0.4,1.4,0.4,2h-10.6
	C326,111.8,326.2,111,326.4,110.4z M358.8,107.7c0.4-0.1,0.9-0.2,1.6-0.2c0.7-0.1,1.4-0.1,1.9-0.1c1.1,0,2.2,0.1,3.1,0.2
	c1,0.2,1.9,0.4,2.6,0.6l1.4-6.7c-0.5-0.1-1-0.4-1.6-0.5l-1.9-0.4c-0.6-0.1-1.2-0.1-1.9-0.2c-0.6,0-1.1-0.1-1.6-0.1
	c-2.5,0-4.6,0.2-6.6,0.6c-2,0.5-3.7,1-5.1,1.5v27h8V107.7z M375.6,126.7c0.9,1.1,2,1.9,3.5,2.5c1.5,0.6,3.2,0.9,5.4,0.9
	c1.7,0,3.2-0.1,4.5-0.5c1.2-0.2,2.2-0.6,3.2-1l-1.1-6.3c-0.7,0.2-1.6,0.5-2.5,0.6c-0.9,0.1-1.9,0.2-2.7,0.2c-1.9,0-3-0.5-3.6-1.5
	c-0.6-1-0.9-2.4-0.9-4.1v-9.9h9.6V101h-9.6v-8.4l-8,1.4v24c0,1.9,0.1,3.5,0.5,5.1C374.1,124.4,374.7,125.7,375.6,126.7z M397.6,101
	h8v28.6h-8V101z M401.5,97.5c1.4,0,2.5-0.4,3.3-1.2c1-0.9,1.5-2,1.5-3.5s-0.5-2.6-1.5-3.5c-1-0.9-2.1-1.2-3.3-1.2
	c-1.4,0-2.5,0.4-3.3,1.2c-1,0.9-1.5,2-1.5,3.5s0.5,2.6,1.5,3.5C399.2,97.2,400.3,97.5,401.5,97.5z M440,97.5c1.4,0,2.5-0.4,3.3-1.2
	c1-0.9,1.5-2,1.5-3.5s-0.5-2.6-1.5-3.5c-1-0.9-2.1-1.2-3.3-1.2c-1.2,0-2.5,0.4-3.3,1.2c-1,0.9-1.5,2-1.5,3.5s0.5,2.6,1.5,3.5
	C437.5,97.2,438.6,97.5,440,97.5z M435.9,101h8v28.6h-8V101z M421.3,107.7h10V101h-10v-1.4c0-0.7,0.1-1.5,0.2-2.1
	c0.1-0.6,0.5-1.2,0.9-1.7c0.4-0.5,0.9-0.9,1.6-1.1c0.6-0.2,1.5-0.4,2.5-0.4c0.7,0,1.5,0,2.1,0.1c0.7,0.1,1.4,0.2,2,0.5l1.4-6.3
	c-0.7-0.2-1.5-0.6-2.5-0.9c-1-0.2-2.2-0.4-3.7-0.4c-4.1,0-7.2,1.1-9.3,3.2c-2.1,2.2-3.1,5.1-3.1,8.8v30.1h8v-21.8H421.3z M454,126
	c1.2,1.4,2.8,2.4,4.7,3.1c1.9,0.7,4.1,1.1,6.7,1.1c1,0,2,0,3.1-0.1c1-0.1,2-0.2,2.8-0.4s1.7-0.4,2.5-0.6c0.7-0.2,1.4-0.5,1.7-0.6
	l-1.1-6.6c-0.9,0.4-2.1,0.7-3.5,1c-1.5,0.2-2.8,0.4-4.3,0.4c-2.3,0-4.2-0.5-5.6-1.5c-1.4-1-2.1-2.4-2.3-4h18.2c0-0.5,0.1-1,0.1-1.5
	v-1.5c0-4.8-1.2-8.4-3.5-10.9c-2.3-2.5-5.6-3.7-9.6-3.7c-1.7,0-3.5,0.4-5.1,1c-1.6,0.6-3.1,1.6-4.3,2.8c-1.2,1.2-2.2,2.8-3.1,4.7
	c-0.7,1.9-1.1,4.1-1.1,6.7c0,2.1,0.2,4.1,0.9,5.8C451.7,123.1,452.7,124.7,454,126z M459,110.4c0.2-0.6,0.6-1.2,1-1.7
	c0.5-0.5,1-0.9,1.6-1.2c0.6-0.2,1.5-0.5,2.3-0.5c1,0,1.7,0.1,2.3,0.5c0.6,0.4,1.1,0.7,1.6,1.2c0.4,0.5,0.7,1.1,0.9,1.7
	c0.2,0.6,0.4,1.4,0.4,2h-10.6C458.6,111.8,458.8,111,459,110.4z M485.8,126.2c1.2,1.2,2.8,2.2,4.7,3c1.9,0.7,4,1,6.3,1
	c1,0,2,0,3.1-0.1c1.1-0.1,2.1-0.2,3.1-0.4c1-0.1,2-0.4,3-0.5c1-0.2,1.7-0.4,2.5-0.6V87.4l-8,1.4v12.9c-0.9-0.4-1.9-0.7-2.7-0.9
	c-0.9-0.2-1.9-0.4-3-0.4c-2,0-3.8,0.4-5.4,1c-1.6,0.7-2.8,1.7-4,3c-1.1,1.4-1.9,2.8-2.5,4.7c-0.6,1.9-0.9,4-0.9,6.3
	c0,2.2,0.4,4.3,1,6.2C483.6,123.4,484.5,125,485.8,126.2z M495.9,107.2c0.9,0,1.6,0.1,2.5,0.4s1.5,0.5,2,0.9v14.7
	c-0.4,0.1-0.9,0.1-1.5,0.2c-0.6,0-1.2,0.1-2,0.1c-2.2,0-3.8-0.7-4.9-2.2c-1.1-1.5-1.7-3.5-1.7-6.1
	C490.2,109.8,492,107.2,495.9,107.2z"/>
<path class="st1" d="M429.1,361.8c0,0,0.1,0,0.1-0.1C429.2,361.8,429.1,361.8,429.1,361.8z M439.6,351.7c3.5-4.3,6.1-9.2,7.9-14.3
	l-25.2-4.3c-0.4-0.1-0.6-0.1-1-0.1c-0.6,0-1.1,0.1-1.6,0.4c-2.1,1-3,3.5-2.1,5.6l9.8,23.8C432.1,359.9,436.3,356.2,439.6,351.7z
	 M373,362.8l9.6-23.5l-0.1-0.1c0.4-0.9,0.5-1.7,0.2-2.6c-0.5-2-2.1-3.3-4.1-3.3c-0.2,0-0.5,0-0.7,0.1l-25.1,4.2
	c1.9,5.2,4.6,10.1,8.2,14.5C364.3,356.2,368.4,359.8,373,362.8z M364.8,284.3l20.9,14.8c0.7,0.5,1.6,0.9,2.5,0.9
	c2.2,0,4.2-1.7,4.2-4.1h0.1l1.5-25.5c-1.7,0.2-3.5,0.5-5.2,0.9C379.8,273.3,371.4,277.8,364.8,284.3z M422.1,274.9
	c-4.9-2.4-10.3-4-15.7-4.7l1.5,25.5c0,0.9,0.4,1.7,0.9,2.5c1.5,1.7,4,2.1,5.8,0.7h0.1l20.8-14.7
	C431.5,280.5,426.9,277.4,422.1,274.9z M422.7,313.3c-0.5,2.2,0.9,4.5,3,5.1v0.1l24.6,7.1c0.5-5.4,0.1-10.9-1.1-16.2
	c-1.2-5.4-3.3-10.5-6.2-15.2L424,311C423.4,311.5,422.9,312.4,422.7,313.3z M411.4,369.6c1.7-0.4,3.3-0.9,4.9-1.4L404,345.9h-0.1
	c-0.4-0.7-1.1-1.4-1.9-1.9c-0.6-0.2-1.2-0.4-1.9-0.4H400c-1.5,0-2.8,0.9-3.6,2.2l-12.4,22.3C392.9,371,402.3,371.5,411.4,369.6z
	 M438.4,353.5C438.4,353.5,438.4,353.4,438.4,353.5C438.4,353.4,438.4,353.5,438.4,353.5z M357.1,294c-2.8,4.7-4.9,9.6-6.1,15
	c-1.2,5.4-1.6,11-1,16.6l24.5-7.1v-0.1c0.9-0.2,1.6-0.7,2.2-1.5c1.4-1.7,1.2-4.3-0.5-5.8v-0.1L357.1,294z M396.2,312.3l-4.8,6.1
	l1.7,7.5l7,3.5l6.9-3.5l1.7-7.5l-4.8-6.1H396.2z"/>
<path class="st1" d="M445.3,429.8c4.7,0,9.1-2.1,12.1-5.8l56.3-70c3-3.7,4.1-8.5,3-13.1l-20-87.2c-1.1-4.6-4.2-8.4-8.4-10.5
	l-81.3-38.8c-2.3-1.1-4.9-1.6-7.5-1.5c-2.1,0.1-4.1,0.6-5.9,1.5l-81.2,38.8c-4.2,2-7.4,5.9-8.4,10.5l-20,87.3
	c-1,4.1-0.1,8.3,2.1,11.9c0.2,0.4,0.6,0.9,0.9,1.2l56.3,70c3,3.7,7.4,5.8,12.1,5.8L445.3,429.8z M367.2,376.9l0.9-2.1
	c-13.4-7.9-23.2-20.4-28.1-35l-2.1,0.4c-0.1,0-0.1-0.1-0.2-0.1c-0.6-0.4-1.6-1-2.6-0.9c-2.6,0.4-5.2,1.4-8.3,2.5h-0.1
	c-0.5,0.2-1,0.4-1.5,0.6c-1,0.4-1.9,0.7-3,1.1c-0.2,0.1-0.6,0.1-0.9,0.2c-0.1,0-0.2,0-0.4,0.1c-2.8,0.6-5.7-1-6.3-3.6
	c-0.6-2.6,1.2-5.3,4.2-5.9c0.1,0,0.2,0,0.4-0.1c0.4-0.1,0.6-0.1,0.9-0.2c1.1-0.2,2.1-0.2,3.1-0.2c0.5,0,1,0,1.6-0.1h0.1
	c3.3-0.4,6.2-0.6,8.7-1.4c0.7-0.2,1.4-1.1,1.9-1.9l0.2-0.2l2-0.6c-2.2-15.3,1.4-30.9,9.9-43.9l-1.5-1.4v-0.2c-0.1-0.7-0.2-1.9-1-2.6
	c-1.9-1.9-4.3-3.3-7.2-5.1c-0.5-0.2-1-0.5-1.4-0.7c-0.9-0.5-1.7-0.9-2.6-1.6c-0.2-0.1-0.5-0.4-0.7-0.6c-0.1-0.1-0.2-0.1-0.2-0.2
	c-1.1-0.9-1.9-2.1-2.1-3.5c-0.2-1.4,0.1-2.7,0.9-3.7c0.9-1.1,2.2-1.7,3.7-1.7h0.1c1.2,0,2.5,0.5,3.5,1.2c0.1,0.1,0.2,0.1,0.2,0.2
	c0.2,0.2,0.6,0.5,0.7,0.6c0.9,0.7,1.5,1.5,2.1,2.2c0.4,0.4,0.6,0.7,1,1.1l0.1,0.1c2.3,2.4,4.3,4.3,6.4,5.8c1,0.6,1.7,0.5,2.5,0.4
	h0.4c0.2,0.2,1.2,0.9,1.7,1.2c8.5-9.2,19.5-15.3,31.8-18.2c2.8-0.6,5.8-1.1,8.8-1.4l0.1-2c0.6-0.6,1.4-1.5,1.6-2.5
	c0.2-2.6-0.1-5.4-0.5-8.8v-0.1c-0.1-0.5-0.1-1-0.2-1.5c-0.2-1-0.4-2-0.4-3.1v-1.4c0-3,2.2-5.4,4.9-5.4c2.7,0,4.9,2.5,4.9,5.4v1.4
	c0,1.1-0.2,2.1-0.4,3.1c-0.1,0.5-0.2,1-0.2,1.5v0.2c-0.4,3.2-0.7,6.1-0.5,8.5c0.1,1.1,0.7,1.6,1.4,2.1l0.2,0.2
	c0,0.4,0.1,1.5,0.1,2.1c7.7,0.7,15.1,2.7,22,6.2c6.9,3.3,13.1,7.8,18.3,13.4l1.9-1.4h0.2c0.7,0,1.9,0.1,2.7-0.4
	c2.1-1.5,4.1-3.5,6.4-5.8l0.1-0.1c0.4-0.4,0.7-0.7,1-1.1c0.6-0.7,1.4-1.5,2.2-2.2c0.2-0.1,0.5-0.4,0.7-0.6c0.1-0.1,0.2-0.1,0.2-0.2
	c2.3-1.9,5.7-1.7,7.3,0.5c1.7,2.1,1.1,5.3-1.2,7.2c-0.1,0.1-0.2,0.1-0.4,0.2c-0.2,0.2-0.5,0.4-0.7,0.6c-0.9,0.6-1.7,1.1-2.6,1.6
	c-0.5,0.2-0.9,0.5-1.4,0.7c-2.8,1.7-5.3,3.3-7.2,5.1c-0.7,0.9-0.9,1.6-0.9,2.4v0.4c-0.1,0.1-0.4,0.4-0.7,0.6c-0.4,0.2-0.7,0.6-1,0.9
	c4.3,6.4,7.4,13.5,9.1,21c1.7,7.5,2.1,15.1,1,22.8l2,0.6c0,0,0.1,0.1,0.1,0.2c0.4,0.6,1,1.6,2,1.9c2.5,0.7,5.3,1.1,8.7,1.4h0.1
	c0.5,0,1.1,0.1,1.6,0.1c1,0,2,0.1,3.1,0.2c0.2,0,0.6,0.1,0.9,0.2c0.2,0,0.4,0.1,0.5,0.1c2.8,0.7,4.7,3.3,4.2,5.9
	c-0.6,2.6-3.5,4.2-6.3,3.6c-0.1,0-0.2-0.1-0.5-0.1c-0.2,0-0.6-0.1-0.7-0.1c-1.1-0.2-2-0.6-2.8-1.1c-0.5-0.2-1-0.4-1.5-0.6h-0.1
	c-3.1-1.1-5.8-2.1-8.3-2.5h-0.2c-1,0-1.5,0.4-2.1,0.9c-0.1,0.1-0.2,0.1-0.2,0.2c-0.4-0.1-1.4-0.2-2.1-0.4
	c-2.3,7.3-5.9,14.1-10.8,20.2c-4.8,6.1-10.6,11.1-17.3,15.1c0.1,0.1,0.1,0.4,0.2,0.6c0.2,0.5,0.4,1.1,0.5,1.2c0,0.1-0.1,0.2-0.1,0.4
	c-0.2,0.7-0.6,1.5-0.2,2.5c1,2.5,2.5,4.9,4.3,7.7c0.2,0.5,0.6,0.9,0.9,1.2c0.6,0.9,1.1,1.6,1.7,2.6c0.1,0.2,0.2,0.6,0.5,0.9
	c0.1,0.1,0.1,0.2,0.2,0.4c1.2,2.7,0.4,5.8-2.1,6.9c-1.2,0.6-2.6,0.6-3.8,0.1c-1.2-0.5-2.3-1.5-3-2.8c0-0.1-0.1-0.2-0.1-0.4
	c-0.1-0.4-0.4-0.6-0.4-0.9c-0.5-1-0.7-2-1-3c-0.1-0.5-0.2-1-0.5-1.5v-0.1c-1.1-3.1-2-5.8-3.3-8c-0.6-1-1.4-1.1-2.1-1.4
	c-0.1,0-0.2-0.1-0.4-0.1c-0.1-0.1-0.2-0.5-0.5-0.9c-0.2-0.4-0.4-0.7-0.5-1c-2.7,1-5.6,1.9-8.3,2.5c-12.2,2.7-24.8,1.9-36.6-2.6
	l-1.1,2c-0.7,0.2-1.6,0.4-2.1,1c-1.2,1.5-2,3.6-2.7,5.8c-0.4,1-0.6,2-1,2.8c-0.1,0.5-0.2,1-0.5,1.5c-0.2,1-0.5,1.9-1,3
	c-0.1,0.2-0.2,0.5-0.4,0.9c-0.1,0.1-0.1,0.2-0.2,0.4c-1,2-2.8,3.2-4.8,3.2c-0.6,0-1.4-0.1-2-0.5c-2.3-1.1-3.3-4.3-2.1-6.9
	c0.1-0.1,0.1-0.2,0.2-0.5c0.1-0.2,0.2-0.6,0.4-0.9c0.5-1,1.1-1.7,1.7-2.6c0.2-0.4,0.6-0.9,0.9-1.2c2-3,3.5-5.6,4.5-7.9
	C367.8,378.7,367.4,377.6,367.2,376.9z"/>
<path class="st1" d="M275.8,479c-1.1-1.5-2.2-2.8-3.5-4.2c-1.2-1.4-2.3-2.6-3.5-3.6c2.2-2.2,4.2-4.2,6.1-6.3
	c1.9-2.1,3.8-4.2,5.7-6.4h-9.8c-0.5,0.6-1.1,1.4-1.9,2.2c-0.7,0.9-1.5,1.7-2.2,2.7c-0.9,0.9-1.6,1.9-2.5,2.8c-0.9,1-1.7,1.9-2.5,2.7
	v-24.2l-8.2,1.4v41.3h8.2v-12.6c0.9,0.7,1.9,1.6,2.7,2.7c1,1.1,1.9,2.2,2.7,3.3c0.9,1.1,1.6,2.4,2.3,3.5c0.7,1.1,1.5,2.2,2,3.1h9.4
	c-0.6-1.2-1.4-2.6-2.3-4.1C277.9,482,276.8,480.5,275.8,479z M301.4,480.9c-0.5,0.1-1.1,0.1-1.7,0.2h-1.9c-1.9,0-3.2-0.6-4-1.7
	c-0.7-1.1-1-3.1-1-5.7v-15.1h-8.2v16.1c0,2,0.2,3.8,0.6,5.4c0.4,1.6,1.1,3.1,2,4.3c1,1.2,2.2,2.1,3.8,2.7c1.6,0.6,3.7,1,6.2,1
	c2.5,0,4.7-0.1,6.9-0.5c2.2-0.4,4-0.7,5.4-1.1v-28h-8.2v22.3H301.4z M341.1,462.1c-1.1-1.4-2.3-2.4-4-3c-1.6-0.7-3.3-1.1-5.4-1.1
	c-1.1,0-2.2,0.1-3.2,0.4c-1,0.2-2,0.5-2.8,1v-14.5l-8.2,1.4v40.5c0.7,0.2,1.6,0.5,2.5,0.6c1,0.1,2,0.4,3,0.5
	c1.1,0.1,2.1,0.2,3.2,0.4c1.1,0.1,2.1,0.1,3.1,0.1c2.3,0,4.6-0.4,6.4-1c1.9-0.7,3.5-1.7,4.7-3.1c1.2-1.4,2.2-3,3-4.8
	c0.7-1.9,1-4,1-6.3c0-2.2-0.2-4.3-0.9-6.2C342.9,464.9,342.1,463.3,341.1,462.1z M334.3,478.9c-1.1,1.5-2.8,2.4-5.1,2.4h-2
	c-0.6-0.1-1.1-0.1-1.5-0.2v-15c0.5-0.4,1.2-0.6,2-0.9c0.9-0.2,1.7-0.4,2.5-0.4c3.8,0,5.8,2.6,5.8,7.9
	C335.9,475.3,335.4,477.4,334.3,478.9z M363.1,457.8c-1.7,0-3.5,0.4-5.2,1c-1.6,0.6-3.1,1.6-4.5,3c-1.2,1.2-2.3,2.8-3.1,4.8
	c-0.7,1.9-1.1,4.2-1.1,6.7c0,2.1,0.2,4.1,0.9,5.9c0.6,1.9,1.6,3.5,2.8,4.8s2.8,2.4,4.8,3.1c2,0.7,4.2,1.1,6.8,1.1c1,0,2.1,0,3.1-0.1
	c1-0.1,2-0.2,2.8-0.5c0.9-0.1,1.7-0.4,2.5-0.5c0.7-0.2,1.4-0.5,1.7-0.6l-1.1-6.7c-0.9,0.4-2.1,0.7-3.6,1c-1.5,0.2-2.8,0.4-4.5,0.4
	c-2.3,0-4.2-0.5-5.6-1.5c-1.4-1-2.2-2.4-2.3-4.1h18.7c0-0.5,0.1-1,0.1-1.5v-1.6c0-4.8-1.2-8.5-3.6-11.1
	C370.5,459,367.2,457.8,363.1,457.8z M357.6,470.1c0.1-0.7,0.2-1.4,0.5-2c0.2-0.7,0.6-1.4,1-1.9c0.5-0.5,1-0.9,1.6-1.2
	c0.6-0.4,1.5-0.5,2.3-0.5c1,0,1.7,0.1,2.3,0.5c0.6,0.4,1.2,0.7,1.6,1.2c0.5,0.5,0.7,1.1,1,1.7c0.2,0.6,0.4,1.4,0.4,2h-10.8V470.1z
	 M398.1,458.3c-0.6-0.1-1.2-0.1-1.9-0.2c-0.6-0.1-1.1-0.1-1.6-0.1c-2.5,0-4.7,0.2-6.7,0.7s-3.7,0.9-5.2,1.5v27.3h8.2v-22.1
	c0.4-0.1,0.9-0.2,1.6-0.2c0.7-0.1,1.4-0.1,1.9-0.1c1.1,0,2.2,0.1,3.2,0.4c1,0.1,1.9,0.4,2.6,0.5l1.4-6.8c-0.5-0.1-1-0.4-1.6-0.5
	C399.3,458.4,398.7,458.4,398.1,458.3z M428.4,461.6c-1-1.2-2.2-2.1-4-2.7c-1.6-0.6-3.7-1-6.1-1c-2.5,0-4.7,0.1-6.9,0.5
	c-2.2,0.4-4,0.7-5.4,1.1v28h8.2v-22.3c0.5-0.1,1.1-0.1,1.7-0.1c0.6-0.1,1.2-0.1,1.9-0.1c1.9,0,3.2,0.5,4,1.6s1,3,1,5.6v15.3h8.2
	v-16.3c0-2-0.2-3.8-0.6-5.4C430,464.1,429.2,462.7,428.4,461.6z M451,457.8c-1.7,0-3.5,0.4-5.2,1c-1.6,0.6-3.1,1.6-4.5,3
	c-1.2,1.2-2.3,2.8-3.1,4.8c-0.7,1.9-1.1,4.2-1.1,6.7c0,2.1,0.2,4.1,0.9,5.9c0.6,1.9,1.6,3.5,2.8,4.8c1.2,1.4,2.8,2.4,4.8,3.1
	s4.2,1.1,6.8,1.1c1,0,2.1,0,3.1-0.1c1-0.1,2-0.2,2.8-0.5c0.9-0.1,1.7-0.4,2.5-0.5c0.7-0.2,1.4-0.5,1.7-0.6l-1.1-6.7
	c-0.9,0.4-2.1,0.7-3.6,1c-1.5,0.2-2.8,0.4-4.5,0.4c-2.3,0-4.2-0.5-5.6-1.5c-1.4-1-2.2-2.4-2.3-4.1h18.7c0-0.5,0.1-1,0.1-1.5v-1.6
	c0-4.8-1.2-8.5-3.6-11.1C458.3,459,455.1,457.8,451,457.8z M445.5,470.1c0.1-0.7,0.2-1.4,0.5-2c0.2-0.7,0.6-1.4,1-1.9
	c0.5-0.5,1-0.9,1.6-1.2c0.6-0.4,1.5-0.5,2.3-0.5c1,0,1.7,0.1,2.3,0.5c0.6,0.4,1.2,0.7,1.6,1.2c0.5,0.5,0.7,1.1,1,1.7
	c0.2,0.6,0.4,1.4,0.4,2h-10.8V470.1z M485.8,481c-0.9,0.1-1.9,0.2-2.7,0.2c-1.9,0-3.1-0.5-3.7-1.5c-0.6-1-0.9-2.4-0.9-4.1v-10.1h9.9
	v-6.8h-9.9v-8.5l-8.2,1.4v24.4c0,1.9,0.1,3.6,0.5,5.1c0.4,1.5,1,2.8,1.9,4c0.9,1.1,2.1,1.9,3.6,2.5c1.5,0.6,3.3,0.9,5.6,0.9
	c1.7,0,3.2-0.1,4.5-0.5c1.2-0.2,2.3-0.6,3.3-1l-1.1-6.4C487.6,480.6,486.7,480.8,485.8,481z M506.5,457.8c-1.7,0-3.5,0.4-5.2,1
	c-1.6,0.6-3.1,1.6-4.5,3c-1.2,1.2-2.3,2.8-3.1,4.8c-0.7,1.9-1.1,4.2-1.1,6.7c0,2.1,0.2,4.1,0.9,5.9c0.6,1.9,1.6,3.5,2.8,4.8
	c1.2,1.4,2.8,2.4,4.8,3.1c2,0.7,4.2,1.1,6.8,1.1c1,0,2.1,0,3.1-0.1c1-0.1,2-0.2,2.8-0.5c0.9-0.1,1.7-0.4,2.5-0.5
	c0.7-0.2,1.4-0.5,1.7-0.6l-1.1-6.7c-0.9,0.4-2.1,0.7-3.6,1c-1.5,0.2-2.8,0.4-4.5,0.4c-2.3,0-4.2-0.5-5.6-1.5c-1.4-1-2.2-2.4-2.3-4.1
	h18.7c0-0.5,0.1-1,0.1-1.5v-1.6c0-4.8-1.2-8.5-3.6-11.1C513.8,459,510.6,457.8,506.5,457.8z M500.9,470.1c0.1-0.7,0.2-1.4,0.5-2
	c0.2-0.7,0.6-1.4,1-1.9c0.5-0.5,1-0.9,1.6-1.2c0.6-0.4,1.5-0.5,2.3-0.5c1,0,1.7,0.1,2.3,0.5c0.6,0.4,1.2,0.7,1.6,1.2
	c0.5,0.5,0.7,1.1,1,1.7c0.2,0.6,0.4,1.4,0.4,2h-10.8V470.1z M544.8,473.8c-0.6-0.7-1.6-1.5-2.7-2.1c-1.2-0.6-2.7-1.4-4.5-2
	c-0.9-0.4-1.6-0.6-2.2-0.9c-0.5-0.2-1-0.5-1.4-0.7c-0.4-0.2-0.5-0.5-0.6-0.7c-0.1-0.2-0.1-0.5-0.1-0.9c0-1.5,1.2-2.1,3.8-2.1
	c1.4,0,2.6,0.1,3.7,0.4c1.1,0.2,2.2,0.5,3.1,0.9l1.5-6.4c-1-0.4-2.2-0.7-3.8-1c-1.6-0.4-3.3-0.5-5.1-0.5c-3.6,0-6.3,0.7-8.3,2.4
	c-2,1.6-3,3.7-3,6.4c0,1.4,0.2,2.6,0.6,3.6c0.4,1,1,1.9,1.7,2.6c0.7,0.7,1.6,1.4,2.6,1.9c1.1,0.5,2.2,1,3.6,1.5
	c1.6,0.6,2.8,1.2,3.7,1.7c0.9,0.5,1.2,1,1.2,1.7c0,0.9-0.4,1.4-1,1.7c-0.6,0.4-1.7,0.5-3.2,0.5c-1.5,0-2.8-0.1-4.3-0.5
	c-1.5-0.4-2.8-0.7-4.3-1.4l-1.4,6.7c0.6,0.2,1.9,0.6,3.6,1.1s3.8,0.6,6.4,0.6c4,0,6.9-0.7,9-2.2c2.2-1.5,3.2-3.6,3.2-6.6
	c0-1.2-0.1-2.2-0.5-3.2C545.9,475.4,545.6,474.6,544.8,473.8z"/>
<path class="st1" d="M577.3,150.1v-31.9c0-31.1-25.3-56.4-56.4-56.4H279.3c-30.9,0-56.4,25.4-56.4,56.4v422.7h354.4V150.1z
	 M482.1,109.5c0.6-1.9,1.4-3.5,2.5-4.7c1.1-1.4,2.5-2.4,4-3c1.6-0.7,3.3-1,5.4-1c1.1,0,2.1,0.1,3,0.4c0.9,0.2,1.7,0.5,2.7,0.9v-13
	l8-1.4v41.2c-0.7,0.2-1.6,0.4-2.5,0.6c-1,0.2-2,0.4-3,0.5c-1,0.1-2.1,0.2-3.1,0.4c-1.1,0.1-2.1,0.1-3.1,0.1c-2.3,0-4.5-0.4-6.3-1
	c-1.9-0.7-3.3-1.7-4.7-3c-1.2-1.2-2.2-2.8-2.8-4.7c-0.6-1.9-1-3.8-1-6.2C481.3,113.5,481.6,111.4,482.1,109.5z M451.2,109.2
	c0.7-1.9,1.9-3.5,3.1-4.7c1.2-1.2,2.7-2.2,4.3-2.8c1.6-0.6,3.3-1,5.1-1c4.1,0,7.3,1.2,9.6,3.7c2.3,2.5,3.5,6.1,3.5,10.9v1.5
	c0,0.6-0.1,1.1-0.1,1.5h-18.3c0.1,1.6,1,3,2.3,4c1.4,1,3.2,1.5,5.6,1.5c1.5,0,3-0.1,4.3-0.4c1.5-0.2,2.6-0.6,3.5-1l1.1,6.6
	c-0.5,0.2-1,0.5-1.7,0.6c-0.7,0.2-1.5,0.4-2.5,0.6c-0.9,0.1-1.9,0.2-2.8,0.4c-1,0.1-2,0.1-3.1,0.1c-2.6,0-4.8-0.4-6.7-1.1
	c-1.9-0.7-3.5-1.9-4.7-3.1c-1.2-1.4-2.2-2.8-2.7-4.7c-0.6-1.9-0.9-3.7-0.9-5.8C450.1,113.2,450.5,111,451.2,109.2z M437.3,89.6
	c1-0.9,2.1-1.2,3.3-1.2c1.4,0,2.5,0.4,3.3,1.2c1,0.9,1.5,2,1.5,3.5c0,1.5-0.5,2.6-1.5,3.5c-1,0.9-2.1,1.2-3.3,1.2
	c-1.4,0-2.5-0.4-3.3-1.2c-1-0.9-1.5-2-1.5-3.5C435.8,91.6,436.3,90.5,437.3,89.6z M444.7,101.4v28.6h-8v-28.6H444.7z M413.9,99.8
	c0-3.7,1-6.6,3.1-8.8c2.1-2.2,5.2-3.2,9.3-3.2c1.5,0,2.7,0.1,3.7,0.4c1,0.2,1.9,0.5,2.5,0.9l-1.4,6.3c-0.6-0.2-1.2-0.5-2-0.5
	c-0.7-0.1-1.4-0.1-2.1-0.1c-1,0-1.9,0.1-2.5,0.4c-0.6,0.2-1.2,0.6-1.6,1.1c-0.4,0.5-0.6,1-0.9,1.7c-0.1,0.6-0.2,1.4-0.2,2.1v1.4h10
	v6.7h-10v21.8h-8V99.8H413.9z M398.8,89.6c1-0.9,2.1-1.2,3.3-1.2c1.4,0,2.5,0.4,3.3,1.2c1,0.9,1.5,2,1.5,3.5c0,1.5-0.5,2.6-1.5,3.5
	c-1,0.9-2.1,1.2-3.3,1.2c-1.4,0-2.5-0.4-3.3-1.2c-1-0.9-1.5-2-1.5-3.5C397.5,91.6,397.8,90.5,398.8,89.6z M406.2,101.4v28.6h-8
	v-28.6H406.2z M373.8,94.2l8-1.4v8.4h9.6v6.7h-9.6v10c0,1.7,0.2,3.1,0.9,4.1c0.6,1,1.9,1.5,3.6,1.5c0.9,0,1.7-0.1,2.7-0.2
	c0.9-0.1,1.7-0.4,2.5-0.6l1.1,6.3c-1,0.4-2.1,0.7-3.2,1c-1.2,0.2-2.6,0.5-4.5,0.5c-2.2,0-4.1-0.2-5.4-0.9c-1.5-0.6-2.6-1.5-3.5-2.5
	c-0.9-1.1-1.5-2.4-1.9-3.8c-0.4-1.5-0.5-3.2-0.5-5.1v-24H373.8z M351.3,102.8c1.5-0.5,3.1-1,5.1-1.5c2-0.5,4.2-0.6,6.6-0.6
	c0.5,0,1,0,1.6,0.1c0.6,0,1.2,0.1,1.9,0.2l1.9,0.4c0.6,0.1,1.1,0.2,1.6,0.5l-1.4,6.7c-0.7-0.1-1.6-0.4-2.6-0.6c-1-0.2-2-0.2-3.1-0.2
	c-0.5,0-1.1,0-1.9,0.1c-0.7,0.1-1.2,0.2-1.6,0.2v21.8h-8V102.8z M319.4,109.2c0.7-1.9,1.9-3.5,3.1-4.7c1.2-1.2,2.7-2.2,4.3-2.8
	c1.6-0.6,3.3-1,5.1-1c4.1,0,7.3,1.2,9.6,3.7c2.3,2.5,3.5,6.1,3.5,10.9v1.5c0,0.6-0.1,1.1-0.1,1.5h-18.3c0.1,1.6,1,3,2.3,4
	c1.4,1,3.2,1.5,5.6,1.5c1.5,0,3-0.1,4.3-0.4c1.5-0.2,2.6-0.6,3.5-1l1.1,6.6c-0.5,0.2-1,0.5-1.7,0.6c-0.7,0.2-1.5,0.4-2.5,0.6
	c-0.9,0.1-1.9,0.2-2.8,0.4c-1,0.1-2,0.1-3.1,0.1c-2.6,0-4.8-0.4-6.7-1.1c-1.9-0.7-3.5-1.9-4.7-3.1c-1.2-1.4-2.2-2.8-2.7-4.7
	c-0.6-1.9-0.9-3.7-0.9-5.8C318.3,113.2,318.7,111,319.4,109.2z M293.5,109.8c0.6-1.9,1.6-3.5,2.8-4.8c1.2-1.4,2.8-2.5,4.6-3.2
	c1.9-0.7,3.8-1.2,6.2-1.2c1.5,0,3,0.1,4.2,0.4c1.2,0.2,2.5,0.6,3.7,1.1l-1.7,6.4c-0.7-0.2-1.6-0.5-2.5-0.7c-0.9-0.2-1.9-0.4-3.1-0.4
	c-2.3,0-4.2,0.7-5.3,2.2c-1.2,1.5-1.7,3.5-1.7,5.8c0,2.6,0.5,4.6,1.6,5.9c1.1,1.4,3,2.1,5.8,2.1c1,0,2-0.1,3.1-0.2
	c1.1-0.1,2.1-0.5,3.1-0.9l1.1,6.6c-1,0.4-2.1,0.7-3.5,1c-1.4,0.2-3,0.5-4.7,0.5c-2.6,0-4.8-0.4-6.7-1.1c-1.7-0.5-3.3-1.6-4.5-3
	c-1.2-1.3-2.1-3-2.6-4.7c-0.6-1.9-0.9-3.8-0.9-5.9C292.5,113.5,292.9,111.6,293.5,109.8z M566.8,531.6H232V154.8h334.8V531.6z"/>
<path class="st1" d="M468.7,110.6c-0.2-0.6-0.5-1.2-0.9-1.7c-0.4-0.5-1-0.9-1.6-1.2c-0.6-0.4-1.4-0.5-2.3-0.5
	c-0.9,0-1.7,0.1-2.3,0.5c-0.6,0.2-1.2,0.7-1.6,1.2c-0.5,0.5-0.7,1.1-1,1.7c-0.2,0.6-0.4,1.4-0.5,2H469
	C469,112,468.9,111.4,468.7,110.6z M496.2,123.6c0.7,0,1.4,0,2-0.1c0.6,0,1.1-0.1,1.5-0.2v-14.6c-0.5-0.4-1.1-0.6-2-0.9
	s-1.6-0.4-2.5-0.4c-3.8,0-5.7,2.6-5.7,7.8c0,2.5,0.6,4.5,1.7,6.1C492.4,122.9,494,123.6,496.2,123.6z M336.9,110.6
	c-0.2-0.6-0.5-1.2-0.9-1.7c-0.4-0.5-1-0.9-1.6-1.2c-0.6-0.4-1.4-0.5-2.3-0.5c-0.9,0-1.7,0.1-2.3,0.5c-0.6,0.2-1.2,0.7-1.6,1.2
	c-0.5,0.5-0.7,1.1-1,1.7c-0.2,0.6-0.4,1.4-0.5,2h10.6C337.2,112,337.1,111.4,336.9,110.6z"/>
<path class="st0" d="M296.1,126.2c1.2,1.4,2.7,2.4,4.6,3.2c1.9,0.7,4.1,1.1,6.7,1.1c1.7,0,3.2-0.1,4.7-0.5c1.4-0.2,2.6-0.6,3.5-1
	l-1.1-6.6c-1,0.4-2,0.7-3.1,0.9s-2.2,0.2-3.1,0.2c-2.7,0-4.7-0.7-5.8-2.1c-1.1-1.4-1.6-3.3-1.6-5.9c0-2.5,0.6-4.3,1.7-5.8
	c1.1-1.5,3-2.2,5.3-2.2c1.1,0,2.1,0.1,3.1,0.4c0.9,0.2,1.7,0.5,2.5,0.7l1.7-6.4c-1.2-0.5-2.5-0.9-3.7-1.1c-1.2-0.2-2.6-0.4-4.2-0.4
	c-2.3,0-4.3,0.4-6.2,1.2c-1.9,0.7-3.3,1.9-4.6,3.2s-2.2,3-2.8,4.8c-0.6,1.9-1,3.7-1,5.8c0,2.1,0.2,4.1,0.9,5.9
	C294,123.4,294.8,124.9,296.1,126.2z M321.9,126.4c1.2,1.4,2.8,2.4,4.7,3.1c1.9,0.7,4.1,1.1,6.7,1.1c1,0,2,0,3.1-0.1
	c1-0.1,2-0.2,2.8-0.4c0.9-0.1,1.7-0.4,2.5-0.6c0.7-0.2,1.4-0.5,1.7-0.6l-1.1-6.6c-0.9,0.4-2.1,0.7-3.5,1c-1.5,0.2-2.8,0.4-4.3,0.4
	c-2.3,0-4.2-0.5-5.6-1.5c-1.4-1-2.1-2.4-2.3-4h18.3c0-0.5,0.1-1,0.1-1.5v-1.5c0-4.8-1.2-8.4-3.5-10.9c-2.3-2.5-5.6-3.7-9.6-3.7
	c-1.7,0-3.5,0.4-5.1,1c-1.6,0.6-3.1,1.6-4.3,2.8c-1.2,1.2-2.2,2.8-3.1,4.7c-0.7,1.9-1.1,4.1-1.1,6.7c0,2.1,0.2,4.1,0.9,5.8
	C319.8,123.5,320.7,125,321.9,126.4z M327.1,110.6c0.2-0.6,0.6-1.2,1-1.7c0.5-0.5,1-0.9,1.6-1.2c0.6-0.2,1.5-0.5,2.3-0.5
	c1,0,1.7,0.1,2.3,0.5c0.6,0.4,1.1,0.7,1.6,1.2c0.4,0.5,0.7,1.1,0.9,1.7c0.2,0.6,0.4,1.4,0.4,2h-10.6
	C326.6,112,326.9,111.4,327.1,110.6z M359.4,108c0.4-0.1,0.9-0.2,1.6-0.2c0.7-0.1,1.4-0.1,1.9-0.1c1.1,0,2.2,0.1,3.1,0.2
	c1,0.2,1.9,0.4,2.6,0.6l1.4-6.7c-0.5-0.1-1-0.4-1.6-0.5l-1.9-0.4c-0.6-0.1-1.2-0.1-1.9-0.2c-0.6,0-1.1-0.1-1.6-0.1
	c-2.5,0-4.6,0.2-6.6,0.6c-2,0.5-3.7,1-5.1,1.5v27h8V108z M376.2,127.1c0.9,1.1,2,1.9,3.5,2.5c1.5,0.6,3.2,0.9,5.4,0.9
	c1.7,0,3.2-0.1,4.5-0.5c1.2-0.2,2.2-0.6,3.2-1l-1.1-6.3c-0.7,0.2-1.6,0.5-2.5,0.6c-0.9,0.1-1.9,0.2-2.7,0.2c-1.9,0-3-0.5-3.6-1.5
	c-0.6-1-0.9-2.4-0.9-4.1v-10h9.6v-6.7H382v-8.4l-8,1.4v24c0,1.9,0.1,3.5,0.5,5.1C374.7,124.7,375.3,126,376.2,127.1z M398.2,101.4h8
	v28.6h-8V101.4z M402.3,97.9c1.4,0,2.5-0.4,3.3-1.2c1-0.9,1.5-2,1.5-3.5c0-1.5-0.5-2.6-1.5-3.5c-1-0.9-2.1-1.2-3.3-1.2
	c-1.4,0-2.5,0.4-3.3,1.2c-1,0.9-1.5,2-1.5,3.5c0,1.5,0.5,2.6,1.5,3.5C399.8,97.4,400.9,97.9,402.3,97.9z M421.9,108h10v-6.7h-10V100
	c0-0.7,0.1-1.5,0.2-2.1c0.1-0.6,0.5-1.2,0.9-1.7c0.4-0.5,0.9-0.9,1.6-1.1c0.6-0.2,1.5-0.4,2.5-0.4c0.7,0,1.5,0,2.1,0.1
	c0.7,0.1,1.4,0.2,2,0.5l1.4-6.3c-0.7-0.2-1.5-0.6-2.5-0.9c-1-0.2-2.2-0.4-3.7-0.4c-4.1,0-7.2,1.1-9.3,3.2c-2.1,2.2-3.1,5.1-3.1,8.8
	v30.1h8V108H421.9z M440.6,97.9c1.4,0,2.5-0.4,3.3-1.2c1-0.9,1.5-2,1.5-3.5c0-1.5-0.5-2.6-1.5-3.5c-1-0.9-2.1-1.2-3.3-1.2
	c-1.4,0-2.5,0.4-3.3,1.2c-1,0.9-1.5,2-1.5,3.5c0,1.5,0.5,2.6,1.5,3.5C438.1,97.4,439.2,97.9,440.6,97.9z M436.6,101.4h8v28.6h-8
	V101.4z M453.7,126.4c1.2,1.4,2.8,2.4,4.7,3.1c1.9,0.7,4.1,1.1,6.7,1.1c1,0,2,0,3.1-0.1c1-0.1,2-0.2,2.8-0.4
	c0.9-0.1,1.7-0.4,2.5-0.6c0.7-0.2,1.4-0.5,1.7-0.6l-1.1-6.6c-0.9,0.4-2.1,0.7-3.5,1c-1.5,0.2-2.8,0.4-4.3,0.4
	c-2.3,0-4.2-0.5-5.6-1.5c-1.4-1-2.1-2.4-2.3-4h18.3c0-0.5,0.1-1,0.1-1.5v-1.5c0-4.8-1.2-8.4-3.5-10.9c-2.3-2.5-5.6-3.7-9.6-3.7
	c-1.7,0-3.5,0.4-5.1,1c-1.6,0.6-3.1,1.6-4.3,2.8c-1.2,1.2-2.2,2.8-3.1,4.7c-0.7,1.9-1.1,4.1-1.1,6.7c0,2.1,0.2,4.1,0.9,5.8
	C451.6,123.5,452.5,125,453.7,126.4z M458.9,110.6c0.2-0.6,0.6-1.2,1-1.7c0.5-0.5,1-0.9,1.6-1.2c0.6-0.2,1.5-0.5,2.3-0.5
	c1,0,1.7,0.1,2.3,0.5c0.6,0.4,1.1,0.7,1.6,1.2c0.4,0.5,0.7,1.1,0.9,1.7c0.2,0.6,0.4,1.4,0.4,2h-10.6
	C458.5,112,458.6,111.4,458.9,110.6z M485.2,126.6c1.2,1.2,2.8,2.2,4.7,3c1.9,0.7,4,1,6.3,1c1,0,2,0,3.1-0.1
	c1.1-0.1,2.1-0.2,3.1-0.4c1-0.1,2-0.4,3-0.5c1-0.2,1.7-0.4,2.5-0.6V87.8l-8,1.4V102c-0.9-0.4-1.9-0.7-2.7-0.9
	c-0.9-0.2-1.9-0.4-3-0.4c-2,0-3.8,0.4-5.4,1c-1.6,0.7-2.8,1.7-4,3c-1.1,1.4-1.9,2.8-2.5,4.7c-0.6,1.9-0.9,4-0.9,6.3
	c0,2.2,0.4,4.3,1,6.2C483,123.8,484,125.2,485.2,126.6z M495.2,107.5c0.9,0,1.6,0.1,2.5,0.4c0.9,0.2,1.5,0.5,2,0.9v14.7
	c-0.4,0.1-0.9,0.1-1.5,0.2c-0.6,0-1.2,0.1-2,0.1c-2.2,0-3.8-0.7-4.9-2.2c-1.1-1.5-1.7-3.5-1.7-6.1
	C489.6,110.1,491.4,107.5,495.2,107.5z"/>
</svg>
