<?xml version="1.0" encoding="UTF-8"?><svg id="Layer_2" xmlns="http://www.w3.org/2000/svg" viewBox="0 0 354.4 479.1"><defs><style>.cls-1{fill:#fff;}.cls-2{fill:#326de5;}</style></defs><g id="katman_1"><path class="cls-1" d="m8.8,92.7h335.2v377.2H8.8V92.7Z"/><path d="m274,61.6c.7,0,1.4,0,2-.1.6,0,1.1-.1,1.5-.2v-14.6c-.5-.4-1.1-.6-2-.9-.9-.2-1.6-.4-2.5-.4-3.8,0-5.7,2.6-5.7,7.8,0,2.5.6,4.5,1.7,6.1,1,1.4,2.7,2.3,5,2.3Zm-160.6-13c-.2-.6-.5-1.2-.9-1.7s-1-.9-1.6-1.2c-.6-.4-1.4-.5-2.3-.5s-1.7.1-2.3.5c-.6.2-1.2.7-1.6,1.2-.5.5-.7,1.1-1,1.7-.2.6-.4,1.4-.5,2h10.6c-.2-.6-.3-1.4-.4-2Zm132.6,0c-.2-.6-.5-1.2-.9-1.7s-1-.9-1.6-1.2c-.6-.4-1.4-.5-2.3-.5s-1.7.1-2.3.5c-.6.2-1.2.7-1.6,1.2-.5.5-.7,1.1-1,1.7-.2.6-.4,1.4-.5,2h10.6c-.1-.6-.3-1.4-.4-2Z"/><path d="m72.4,64.2c1.2,1.4,2.7,2.4,4.6,3.2,1.9.7,4.1,1.1,6.7,1.1,1.7,0,3.2-.1,4.7-.5,1.4-.2,2.6-.6,3.5-1l-1.1-6.6c-1,.4-2,.7-3.1.9-1.1.1-2.2.2-3.1.2-2.7,0-4.7-.7-5.8-2.1-1.1-1.4-1.6-3.3-1.6-5.9s.6-4.3,1.7-5.8,3-2.2,5.3-2.2c1.1,0,2.1.1,3.1.4.9.2,1.7.5,2.5.7l1.7-6.4c-1.2-.5-2.5-.9-3.7-1.1s-2.6-.4-4.2-.4c-2.3,0-4.3.4-6.2,1.2-1.9.7-3.3,1.9-4.6,3.2-1.2,1.4-2.2,3-2.8,4.8-.6,1.9-1,3.7-1,5.8s.2,4.1.9,5.9c.4,1.6,1.3,3.2,2.5,4.6Zm26,0c1.2,1.4,2.8,2.4,4.7,3.1,1.9.7,4.1,1.1,6.7,1.1,1,0,2,0,3.1-.1,1-.1,2-.2,2.8-.4.9-.1,1.7-.4,2.5-.6.7-.2,1.4-.5,1.7-.6l-1.1-6.6c-.9.4-2.1.7-3.5,1-1.5.2-2.8.4-4.3.4-2.3,0-4.2-.5-5.6-1.5s-2.1-2.4-2.3-4h18.3c0-.5.1-1,.1-1.5v-1.5c0-4.8-1.1-8.4-3.5-10.9-2.3-2.5-5.6-3.7-9.6-3.7-1.7,0-3.5.4-5.1,1s-3.1,1.6-4.3,2.8c-1.2,1.2-2.2,2.8-3.1,4.7-.7,1.9-1.1,4.1-1.1,6.7,0,2.1.2,4.1.9,5.8.5,1.9,1.5,3.5,2.7,4.8Zm5.1-15.6c.2-.6.6-1.2,1-1.7.5-.5,1-.9,1.6-1.2.6-.2,1.5-.5,2.3-.5,1,0,1.7.1,2.3.5.6.4,1.1.7,1.6,1.2.4.5.7,1.1.9,1.7.2.6.4,1.4.4,2h-10.6c.1-.6.3-1.4.5-2Zm32.4-2.7c.4-.1.9-.2,1.6-.2.7-.1,1.4-.1,1.9-.1,1.1,0,2.2.1,3.1.2,1,.2,1.9.4,2.6.6l1.4-6.7c-.5-.1-1-.4-1.6-.5l-1.9-.4c-.6-.1-1.2-.1-1.9-.2-.6,0-1.1-.1-1.6-.1-2.5,0-4.6.2-6.6.6-2,.5-3.7,1-5.1,1.5v27h8v-21.7h.1Zm16.8,19c.9,1.1,2,1.9,3.5,2.5s3.2.9,5.4.9c1.7,0,3.2-.1,4.5-.5,1.2-.2,2.2-.6,3.2-1l-1.1-6.3c-.7.2-1.6.5-2.5.6s-1.9.2-2.7.2c-1.9,0-3-.5-3.6-1.5s-.9-2.4-.9-4.1v-9.9h9.6v-6.6h-9.6v-8.4l-8,1.4v24c0,1.9.1,3.5.5,5.1.2,1.3.8,2.6,1.7,3.6Zm22-25.7h8v28.6h-8v-28.6Zm3.9-3.5c1.4,0,2.5-.4,3.3-1.2,1-.9,1.5-2,1.5-3.5s-.5-2.6-1.5-3.5-2.1-1.2-3.3-1.2c-1.4,0-2.5.4-3.3,1.2-1,.9-1.5,2-1.5,3.5s.5,2.6,1.5,3.5c1,.9,2.1,1.2,3.3,1.2Zm38.5,0c1.4,0,2.5-.4,3.3-1.2,1-.9,1.5-2,1.5-3.5s-.5-2.6-1.5-3.5-2.1-1.2-3.3-1.2-2.5.4-3.3,1.2c-1,.9-1.5,2-1.5,3.5s.5,2.6,1.5,3.5c.8.9,1.9,1.2,3.3,1.2Zm-4.1,3.5h8v28.6h-8v-28.6Zm-14.6,6.7h10v-6.7h-10v-1.4c0-.7.1-1.5.2-2.1s.5-1.2.9-1.7.9-.9,1.6-1.1c.6-.2,1.5-.4,2.5-.4.7,0,1.5,0,2.1.1.7.1,1.4.2,2,.5l1.4-6.3c-.7-.2-1.5-.6-2.5-.9-1-.2-2.2-.4-3.7-.4-4.1,0-7.2,1.1-9.3,3.2-2.1,2.2-3.1,5.1-3.1,8.8v30.1h8v-21.8h-.1v.1Zm32.7,18.3c1.2,1.4,2.8,2.4,4.7,3.1,1.9.7,4.1,1.1,6.7,1.1,1,0,2,0,3.1-.1,1-.1,2-.2,2.8-.4s1.7-.4,2.5-.6c.7-.2,1.4-.5,1.7-.6l-1.1-6.6c-.9.4-2.1.7-3.5,1-1.5.2-2.8.4-4.3.4-2.3,0-4.2-.5-5.6-1.5s-2.1-2.4-2.3-4h18.2c0-.5.1-1,.1-1.5v-1.5c0-4.8-1.2-8.4-3.5-10.9s-5.6-3.7-9.6-3.7c-1.7,0-3.5.4-5.1,1s-3.1,1.6-4.3,2.8c-1.2,1.2-2.2,2.8-3.1,4.7-.7,1.9-1.1,4.1-1.1,6.7,0,2.1.2,4.1.9,5.8.5,1.9,1.5,3.5,2.8,4.8Zm5-15.6c.2-.6.6-1.2,1-1.7.5-.5,1-.9,1.6-1.2.6-.2,1.5-.5,2.3-.5,1,0,1.7.1,2.3.5.6.4,1.1.7,1.6,1.2.4.5.7,1.1.9,1.7.2.6.4,1.4.4,2h-10.6c.1-.6.3-1.4.5-2Zm26.8,15.8c1.2,1.2,2.8,2.2,4.7,3,1.9.7,4,1,6.3,1,1,0,2,0,3.1-.1s2.1-.2,3.1-.4c1-.1,2-.4,3-.5,1-.2,1.7-.4,2.5-.6V25.6l-8,1.4v12.9c-.9-.4-1.9-.7-2.7-.9-.9-.2-1.9-.4-3-.4-2,0-3.8.4-5.4,1-1.6.7-2.8,1.7-4,3-1.1,1.4-1.9,2.8-2.5,4.7-.6,1.9-.9,4-.9,6.3s.4,4.3,1,6.2c.6,1.8,1.5,3.4,2.8,4.6Zm10.1-19c.9,0,1.6.1,2.5.4s1.5.5,2,.9v14.7c-.4.1-.9.1-1.5.2-.6,0-1.2.1-2,.1-2.2,0-3.8-.7-4.9-2.2s-1.7-3.5-1.7-6.1c-.1-5.4,1.7-8,5.6-8Z"/><path class="cls-2" d="m206.2,300s.1,0,.1-.1c0,.1-.1.1-.1.1Zm10.5-10.1c3.5-4.3,6.1-9.2,7.9-14.3l-25.2-4.3c-.4-.1-.6-.1-1-.1-.6,0-1.1.1-1.6.4-2.1,1-3,3.5-2.1,5.6l9.8,23.8c4.7-2.9,8.9-6.6,12.2-11.1Zm-66.6,11.1l9.6-23.5-.1-.1c.4-.9.5-1.7.2-2.6-.5-2-2.1-3.3-4.1-3.3-.2,0-.5,0-.7.1l-25.1,4.2c1.9,5.2,4.6,10.1,8.2,14.5,3.3,4.1,7.4,7.7,12,10.7Zm-8.2-78.5l20.9,14.8c.7.5,1.6.9,2.5.9,2.2,0,4.2-1.7,4.2-4.1h.1l1.5-25.5c-1.7.2-3.5.5-5.2.9-9,2-17.4,6.5-24,13Zm57.3-9.4c-4.9-2.4-10.3-4-15.7-4.7l1.5,25.5c0,.9.4,1.7.9,2.5,1.5,1.7,4,2.1,5.8.7h.1l20.8-14.7c-4-3.7-8.6-6.8-13.4-9.3Zm.6,38.4c-.5,2.2.9,4.5,3,5.1v.1l24.6,7.1c.5-5.4.1-10.9-1.1-16.2-1.2-5.4-3.3-10.5-6.2-15.2l-19,16.8c-.6.5-1.1,1.4-1.3,2.3Zm-11.3,56.3c1.7-.4,3.3-.9,4.9-1.4l-12.3-22.3h-.1c-.4-.7-1.1-1.4-1.9-1.9-.6-.2-1.2-.4-1.9-.4h-.1c-1.5,0-2.8.9-3.6,2.2l-12.4,22.3c8.9,2.9,18.3,3.4,27.4,1.5Zm27-16.1s0-.1,0,0c0-.1,0,0,0,0Zm-81.3-59.5c-2.8,4.7-4.9,9.6-6.1,15s-1.6,11-1,16.6l24.5-7.1v-.1c.9-.2,1.6-.7,2.2-1.5,1.4-1.7,1.2-4.3-.5-5.8v-.1l-19.1-17Zm39.1,18.3l-4.8,6.1,1.7,7.5,7,3.5,6.9-3.5,1.7-7.5-4.8-6.1h-7.7Z"/><path class="cls-2" d="m222.4,368c4.7,0,9.1-2.1,12.1-5.8l56.3-70c3-3.7,4.1-8.5,3-13.1l-20-87.2c-1.1-4.6-4.2-8.4-8.4-10.5l-81.3-38.8c-2.3-1.1-4.9-1.6-7.5-1.5-2.1.1-4.1.6-5.9,1.5l-81.2,38.8c-4.2,2-7.4,5.9-8.4,10.5l-20,87.3c-1,4.1-.1,8.3,2.1,11.9.2.4.6.9.9,1.2l56.3,70c3,3.7,7.4,5.8,12.1,5.8l89.9-.1Zm-78.1-52.9l.9-2.1c-13.4-7.9-23.2-20.4-28.1-35l-2.1.4c-.1,0-.1-.1-.2-.1-.6-.4-1.6-1-2.6-.9-2.6.4-5.2,1.4-8.3,2.5h-.1c-.5.2-1,.4-1.5.6-1,.4-1.9.7-3,1.1-.2.1-.6.1-.9.2-.1,0-.2,0-.4.1-2.8.6-5.7-1-6.3-3.6-.6-2.6,1.2-5.3,4.2-5.9.1,0,.2,0,.4-.1.4-.1.6-.1.9-.2,1.1-.2,2.1-.2,3.1-.2.5,0,1,0,1.6-.1h.1c3.3-.4,6.2-.6,8.7-1.4.7-.2,1.4-1.1,1.9-1.9l.2-.2,2-.6c-2.2-15.3,1.4-30.9,9.9-43.9l-1.5-1.4v-.2c-.1-.7-.2-1.9-1-2.6-1.9-1.9-4.3-3.3-7.2-5.1-.5-.2-1-.5-1.4-.7-.9-.5-1.7-.9-2.6-1.6-.2-.1-.5-.4-.7-.6-.1-.1-.2-.1-.2-.2-1.1-.9-1.9-2.1-2.1-3.5s.1-2.7.9-3.7c.9-1.1,2.2-1.7,3.7-1.7h.1c1.2,0,2.5.5,3.5,1.2.1.1.2.1.2.2.2.2.6.5.7.6.9.7,1.5,1.5,2.1,2.2.4.4.6.7,1,1.1l.1.1c2.3,2.4,4.3,4.3,6.4,5.8,1,.6,1.7.5,2.5.4h.4c.2.2,1.2.9,1.7,1.2,8.5-9.2,19.5-15.3,31.8-18.2,2.8-.6,5.8-1.1,8.8-1.4l.1-2c.6-.6,1.4-1.5,1.6-2.5.2-2.6-.1-5.4-.5-8.8v-.1c-.1-.5-.1-1-.2-1.5-.2-1-.4-2-.4-3.1v-1.4c0-3,2.2-5.4,4.9-5.4s4.9,2.5,4.9,5.4v1.4c0,1.1-.2,2.1-.4,3.1-.1.5-.2,1-.2,1.5v.2c-.4,3.2-.7,6.1-.5,8.5.1,1.1.7,1.6,1.4,2.1l.2.2c0,.4.1,1.5.1,2.1,7.7.7,15.1,2.7,22,6.2,6.9,3.3,13.1,7.8,18.3,13.4l1.9-1.4h.2c.7,0,1.9.1,2.7-.4,2.1-1.5,4.1-3.5,6.4-5.8l.1-.1c.4-.4.7-.7,1-1.1.6-.7,1.4-1.5,2.2-2.2.2-.1.5-.4.7-.6.1-.1.2-.1.2-.2,2.3-1.9,5.7-1.7,7.3.5,1.7,2.1,1.1,5.3-1.2,7.2-.1.1-.2.1-.4.2-.2.2-.5.4-.7.6-.9.6-1.7,1.1-2.6,1.6-.5.2-.9.5-1.4.7-2.8,1.7-5.3,3.3-7.2,5.1-.7.9-.9,1.6-.9,2.4v.4c-.1.1-.4.4-.7.6-.4.2-.7.6-1,.9,4.3,6.4,7.4,13.5,9.1,21s2.1,15.1,1,22.8l2,.6s.1.1.1.2c.4.6,1,1.6,2,1.9,2.5.7,5.3,1.1,8.7,1.4h.1c.5,0,1.1.1,1.6.1,1,0,2,.1,3.1.2.2,0,.6.1.9.2.2,0,.4.1.5.1,2.8.7,4.7,3.3,4.2,5.9-.6,2.6-3.5,4.2-6.3,3.6-.1,0-.2-.1-.5-.1-.2,0-.6-.1-.7-.1-1.1-.2-2-.6-2.8-1.1-.5-.2-1-.4-1.5-.6h-.1c-3.1-1.1-5.8-2.1-8.3-2.5h-.2c-1,0-1.5.4-2.1.9-.1.1-.2.1-.2.2-.4-.1-1.4-.2-2.1-.4-2.3,7.3-5.9,14.1-10.8,20.2-4.8,6.1-10.6,11.1-17.3,15.1.1.1.1.4.2.6.2.5.4,1.1.5,1.2,0,.1-.1.2-.1.4-.2.7-.6,1.5-.2,2.5,1,2.5,2.5,4.9,4.3,7.7.2.5.6.9.9,1.2.6.9,1.1,1.6,1.7,2.6.1.2.2.6.5.9.1.1.1.2.2.4,1.2,2.7.4,5.8-2.1,6.9-1.2.6-2.6.6-3.8.1-1.2-.5-2.3-1.5-3-2.8,0-.1-.1-.2-.1-.4-.1-.4-.4-.6-.4-.9-.5-1-.7-2-1-3-.1-.5-.2-1-.5-1.5v-.1c-1.1-3.1-2-5.8-3.3-8-.6-1-1.4-1.1-2.1-1.4-.1,0-.2-.1-.4-.1-.1-.1-.2-.5-.5-.9-.2-.4-.4-.7-.5-1-2.7,1-5.6,1.9-8.3,2.5-12.2,2.7-24.8,1.9-36.6-2.6l-1.1,2c-.7.2-1.6.4-2.1,1-1.2,1.5-2,3.6-2.7,5.8-.4,1-.6,2-1,2.8-.1.5-.2,1-.5,1.5-.2,1-.5,1.9-1,3-.1.2-.2.5-.4.9-.1.1-.1.2-.2.4-1,2-2.8,3.2-4.8,3.2-.6,0-1.4-.1-2-.5-2.3-1.1-3.3-4.3-2.1-6.9.1-.1.1-.2.2-.5.1-.2.2-.6.4-.9.5-1,1.1-1.7,1.7-2.6.2-.4.6-.9.9-1.2,2-3,3.5-5.6,4.5-7.9-.5-.5-.9-1.6-1.1-2.3Z"/><path class="cls-2" d="m52.9,417.2c-1.1-1.5-2.2-2.8-3.5-4.2-1.2-1.4-2.3-2.6-3.5-3.6,2.2-2.2,4.2-4.2,6.1-6.3,1.9-2.1,3.8-4.2,5.7-6.4h-9.8c-.5.6-1.1,1.4-1.9,2.2-.7.9-1.5,1.7-2.2,2.7-.9.9-1.6,1.9-2.5,2.8-.9,1-1.7,1.9-2.5,2.7v-24.2l-8.2,1.4v41.3h8.2v-12.6c.9.7,1.9,1.6,2.7,2.7,1,1.1,1.9,2.2,2.7,3.3.9,1.1,1.6,2.4,2.3,3.5.7,1.1,1.5,2.2,2,3.1h9.4c-.6-1.2-1.4-2.6-2.3-4.1-.6-1.3-1.7-2.8-2.7-4.3Zm25.6,1.9c-.5.1-1.1.1-1.7.2h-1.9c-1.9,0-3.2-.6-4-1.7-.7-1.1-1-3.1-1-5.7v-15.1h-8.2v16.1c0,2,.2,3.8.6,5.4s1.1,3.1,2,4.3c1,1.2,2.2,2.1,3.8,2.7,1.6.6,3.7,1,6.2,1s4.7-.1,6.9-.5c2.2-.4,4-.7,5.4-1.1v-28h-8.2v22.3h.1v.1Zm39.7-18.8c-1.1-1.4-2.3-2.4-4-3-1.6-.7-3.3-1.1-5.4-1.1-1.1,0-2.2.1-3.2.4-1,.2-2,.5-2.8,1v-14.5l-8.2,1.4v40.5c.7.2,1.6.5,2.5.6,1,.1,2,.4,3,.5,1.1.1,2.1.2,3.2.4,1.1.1,2.1.1,3.1.1,2.3,0,4.6-.4,6.4-1,1.9-.7,3.5-1.7,4.7-3.1s2.2-3,3-4.8c.7-1.9,1-4,1-6.3s-.2-4.3-.9-6.2c-.6-2.1-1.4-3.7-2.4-4.9Zm-6.8,16.8c-1.1,1.5-2.8,2.4-5.1,2.4h-2c-.6-.1-1.1-.1-1.5-.2v-15c.5-.4,1.2-.6,2-.9.9-.2,1.7-.4,2.5-.4,3.8,0,5.8,2.6,5.8,7.9-.1,2.6-.6,4.7-1.7,6.2Zm28.8-21.1c-1.7,0-3.5.4-5.2,1-1.6.6-3.1,1.6-4.5,3-1.2,1.2-2.3,2.8-3.1,4.8-.7,1.9-1.1,4.2-1.1,6.7,0,2.1.2,4.1.9,5.9.6,1.9,1.6,3.5,2.8,4.8s2.8,2.4,4.8,3.1,4.2,1.1,6.8,1.1c1,0,2.1,0,3.1-.1s2-.2,2.8-.5c.9-.1,1.7-.4,2.5-.5.7-.2,1.4-.5,1.7-.6l-1.1-6.7c-.9.4-2.1.7-3.6,1-1.5.2-2.8.4-4.5.4-2.3,0-4.2-.5-5.6-1.5s-2.2-2.4-2.3-4.1h18.7c0-.5.1-1,.1-1.5v-1.6c0-4.8-1.2-8.5-3.6-11.1-2.2-2.4-5.5-3.6-9.6-3.6Zm-5.5,12.3c.1-.7.2-1.4.5-2,.2-.7.6-1.4,1-1.9.5-.5,1-.9,1.6-1.2.6-.4,1.5-.5,2.3-.5,1,0,1.7.1,2.3.5.6.4,1.2.7,1.6,1.2.5.5.7,1.1,1,1.7.2.6.4,1.4.4,2h-10.8v.2h.1Zm40.5-11.8c-.6-.1-1.2-.1-1.9-.2-.6-.1-1.1-.1-1.6-.1-2.5,0-4.7.2-6.7.7s-3.7.9-5.2,1.5v27.3h8.2v-22.1c.4-.1.9-.2,1.6-.2.7-.1,1.4-.1,1.9-.1,1.1,0,2.2.1,3.2.4,1,.1,1.9.4,2.6.5l1.4-6.8c-.5-.1-1-.4-1.6-.5-.7-.3-1.3-.3-1.9-.4Zm30.3,3.3c-1-1.2-2.2-2.1-4-2.7-1.6-.6-3.7-1-6.1-1s-4.7.1-6.9.5c-2.2.4-4,.7-5.4,1.1v28h8.2v-22.3c.5-.1,1.1-.1,1.7-.1.6-.1,1.2-.1,1.9-.1,1.9,0,3.2.5,4,1.6s1,3,1,5.6v15.3h8.2v-16.3c0-2-.2-3.8-.6-5.4-.4-1.7-1.2-3.1-2-4.2Zm22.6-3.8c-1.7,0-3.5.4-5.2,1-1.6.6-3.1,1.6-4.5,3-1.2,1.2-2.3,2.8-3.1,4.8-.7,1.9-1.1,4.2-1.1,6.7,0,2.1.2,4.1.9,5.9.6,1.9,1.6,3.5,2.8,4.8,1.2,1.4,2.8,2.4,4.8,3.1s4.2,1.1,6.8,1.1c1,0,2.1,0,3.1-.1s2-.2,2.8-.5c.9-.1,1.7-.4,2.5-.5.7-.2,1.4-.5,1.7-.6l-1.1-6.7c-.9.4-2.1.7-3.6,1-1.5.2-2.8.4-4.5.4-2.3,0-4.2-.5-5.6-1.5s-2.2-2.4-2.3-4.1h18.7c0-.5.1-1,.1-1.5v-1.6c0-4.8-1.2-8.5-3.6-11.1-2.3-2.4-5.5-3.6-9.6-3.6Zm-5.5,12.3c.1-.7.2-1.4.5-2,.2-.7.6-1.4,1-1.9.5-.5,1-.9,1.6-1.2.6-.4,1.5-.5,2.3-.5,1,0,1.7.1,2.3.5.6.4,1.2.7,1.6,1.2.5.5.7,1.1,1,1.7.2.6.4,1.4.4,2h-10.8v.2h.1Zm40.3,10.9c-.9.1-1.9.2-2.7.2-1.9,0-3.1-.5-3.7-1.5s-.9-2.4-.9-4.1v-10.1h9.9v-6.8h-9.9v-8.5l-8.2,1.4v24.4c0,1.9.1,3.6.5,5.1s1,2.8,1.9,4c.9,1.1,2.1,1.9,3.6,2.5s3.3.9,5.6.9c1.7,0,3.2-.1,4.5-.5,1.2-.2,2.3-.6,3.3-1l-1.1-6.4c-1,0-1.9.2-2.8.4Zm20.7-23.2c-1.7,0-3.5.4-5.2,1-1.6.6-3.1,1.6-4.5,3-1.2,1.2-2.3,2.8-3.1,4.8-.7,1.9-1.1,4.2-1.1,6.7,0,2.1.2,4.1.9,5.9.6,1.9,1.6,3.5,2.8,4.8,1.2,1.4,2.8,2.4,4.8,3.1s4.2,1.1,6.8,1.1c1,0,2.1,0,3.1-.1s2-.2,2.8-.5c.9-.1,1.7-.4,2.5-.5.7-.2,1.4-.5,1.7-.6l-1.1-6.7c-.9.4-2.1.7-3.6,1-1.5.2-2.8.4-4.5.4-2.3,0-4.2-.5-5.6-1.5s-2.2-2.4-2.3-4.1h18.7c0-.5.1-1,.1-1.5v-1.6c0-4.8-1.2-8.5-3.6-11.1-2.3-2.4-5.5-3.6-9.6-3.6Zm-5.6,12.3c.1-.7.2-1.4.5-2,.2-.7.6-1.4,1-1.9.5-.5,1-.9,1.6-1.2.6-.4,1.5-.5,2.3-.5,1,0,1.7.1,2.3.5.6.4,1.2.7,1.6,1.2.5.5.7,1.1,1,1.7.2.6.4,1.4.4,2h-10.8v.2h.1Zm43.9,3.7c-.6-.7-1.6-1.5-2.7-2.1-1.2-.6-2.7-1.4-4.5-2-.9-.4-1.6-.6-2.2-.9-.5-.2-1-.5-1.4-.7s-.5-.5-.6-.7-.1-.5-.1-.9c0-1.5,1.2-2.1,3.8-2.1,1.4,0,2.6.1,3.7.4,1.1.2,2.2.5,3.1.9l1.5-6.4c-1-.4-2.2-.7-3.8-1-1.6-.4-3.3-.5-5.1-.5-3.6,0-6.3.7-8.3,2.4-2,1.6-3,3.7-3,6.4,0,1.4.2,2.6.6,3.6.4,1,1,1.9,1.7,2.6s1.6,1.4,2.6,1.9c1.1.5,2.2,1,3.6,1.5,1.6.6,2.8,1.2,3.7,1.7s1.2,1,1.2,1.7c0,.9-.4,1.4-1,1.7-.6.4-1.7.5-3.2.5s-2.8-.1-4.3-.5-2.8-.7-4.3-1.4l-1.4,6.7c.6.2,1.9.6,3.6,1.1s3.8.6,6.4.6c4,0,6.9-.7,9-2.2,2.2-1.5,3.2-3.6,3.2-6.6,0-1.2-.1-2.2-.5-3.2-.2-.9-.5-1.7-1.3-2.5Z"/><path class="cls-2" d="m354.4,88.3v-31.9c0-31.1-25.3-56.4-56.4-56.4H56.4C25.5,0,0,25.4,0,56.4v422.7h354.4V88.3Zm-95.2-40.6c.6-1.9,1.4-3.5,2.5-4.7,1.1-1.4,2.5-2.4,4-3,1.6-.7,3.3-1,5.4-1,1.1,0,2.1.1,3,.4.9.2,1.7.5,2.7.9v-13l8-1.4v41.2c-.7.2-1.6.4-2.5.6-1,.2-2,.4-3,.5s-2.1.2-3.1.4c-1.1.1-2.1.1-3.1.1-2.3,0-4.5-.4-6.3-1-1.9-.7-3.3-1.7-4.7-3-1.2-1.2-2.2-2.8-2.8-4.7-.6-1.9-1-3.8-1-6.2.1-2.1.4-4.2.9-6.1Zm-30.9-.3c.7-1.9,1.9-3.5,3.1-4.7s2.7-2.2,4.3-2.8c1.6-.6,3.3-1,5.1-1,4.1,0,7.3,1.2,9.6,3.7,2.3,2.5,3.5,6.1,3.5,10.9v1.5c0,.6-.1,1.1-.1,1.5h-18.3c.1,1.6,1,3,2.3,4,1.4,1,3.2,1.5,5.6,1.5,1.5,0,3-.1,4.3-.4,1.5-.2,2.6-.6,3.5-1l1.1,6.6c-.5.2-1,.5-1.7.6-.7.2-1.5.4-2.5.6-.9.1-1.9.2-2.8.4-1,.1-2,.1-3.1.1-2.6,0-4.8-.4-6.7-1.1-1.9-.7-3.5-1.9-4.7-3.1-1.2-1.4-2.2-2.8-2.7-4.7-.6-1.9-.9-3.7-.9-5.8,0-2.8.4-5,1.1-6.8Zm-13.9-19.6c1-.9,2.1-1.2,3.3-1.2,1.4,0,2.5.4,3.3,1.2,1,.9,1.5,2,1.5,3.5s-.5,2.6-1.5,3.5-2.1,1.2-3.3,1.2c-1.4,0-2.5-.4-3.3-1.2-1-.9-1.5-2-1.5-3.5s.5-2.6,1.5-3.5Zm7.4,11.8v28.6h-8v-28.6h8Zm-30.8-1.6c0-3.7,1-6.6,3.1-8.8,2.1-2.2,5.2-3.2,9.3-3.2,1.5,0,2.7.1,3.7.4,1,.2,1.9.5,2.5.9l-1.4,6.3c-.6-.2-1.2-.5-2-.5-.7-.1-1.4-.1-2.1-.1-1,0-1.9.1-2.5.4-.6.2-1.2.6-1.6,1.1s-.6,1-.9,1.7c-.1.6-.2,1.4-.2,2.1v1.4h10v6.7h-10v21.8h-8v-30.2h.1Zm-15.1-10.2c1-.9,2.1-1.2,3.3-1.2,1.4,0,2.5.4,3.3,1.2,1,.9,1.5,2,1.5,3.5s-.5,2.6-1.5,3.5-2.1,1.2-3.3,1.2c-1.4,0-2.5-.4-3.3-1.2-1-.9-1.5-2-1.5-3.5.2-1.5.5-2.6,1.5-3.5Zm7.4,11.8v28.6h-8v-28.6h8Zm-32.4-7.2l8-1.4v8.4h9.6v6.7h-9.6v10c0,1.7.2,3.1.9,4.1.6,1,1.9,1.5,3.6,1.5.9,0,1.7-.1,2.7-.2.9-.1,1.7-.4,2.5-.6l1.1,6.3c-1,.4-2.1.7-3.2,1-1.2.2-2.6.5-4.5.5-2.2,0-4.1-.2-5.4-.9-1.5-.6-2.6-1.5-3.5-2.5-.9-1.1-1.5-2.4-1.9-3.8-.4-1.5-.5-3.2-.5-5.1v-24s.2,0,.2,0Zm-22.5,8.6c1.5-.5,3.1-1,5.1-1.5s4.2-.6,6.6-.6c.5,0,1,0,1.6.1.6,0,1.2.1,1.9.2l1.9.4c.6.1,1.1.2,1.6.5l-1.4,6.7c-.7-.1-1.6-.4-2.6-.6s-2-.2-3.1-.2c-.5,0-1.1,0-1.9.1-.7.1-1.2.2-1.6.2v21.8h-8v-27.1h-.1Zm-31.9,6.4c.7-1.9,1.9-3.5,3.1-4.7s2.7-2.2,4.3-2.8c1.6-.6,3.3-1,5.1-1,4.1,0,7.3,1.2,9.6,3.7,2.3,2.5,3.5,6.1,3.5,10.9v1.5c0,.6-.1,1.1-.1,1.5h-18.3c.1,1.6,1,3,2.3,4,1.4,1,3.2,1.5,5.6,1.5,1.5,0,3-.1,4.3-.4,1.5-.2,2.6-.6,3.5-1l1.1,6.6c-.5.2-1,.5-1.7.6-.7.2-1.5.4-2.5.6-.9.1-1.9.2-2.8.4-1,.1-2,.1-3.1.1-2.6,0-4.8-.4-6.7-1.1-1.9-.7-3.5-1.9-4.7-3.1-1.2-1.4-2.2-2.8-2.7-4.7-.6-1.9-.9-3.7-.9-5.8,0-2.8.4-5,1.1-6.8Zm-25.9.6c.6-1.9,1.6-3.5,2.8-4.8,1.2-1.4,2.8-2.5,4.6-3.2,1.9-.7,3.8-1.2,6.2-1.2,1.5,0,3,.1,4.2.4,1.2.2,2.5.6,3.7,1.1l-1.7,6.4c-.7-.2-1.6-.5-2.5-.7s-1.9-.4-3.1-.4c-2.3,0-4.2.7-5.3,2.2-1.2,1.5-1.7,3.5-1.7,5.8,0,2.6.5,4.6,1.6,5.9,1.1,1.4,3,2.1,5.8,2.1,1,0,2-.1,3.1-.2s2.1-.5,3.1-.9l1.1,6.6c-1,.4-2.1.7-3.5,1-1.4.2-3,.5-4.7.5-2.6,0-4.8-.4-6.7-1.1-1.7-.5-3.3-1.6-4.5-3-1.2-1.3-2.1-3-2.6-4.7-.6-1.9-.9-3.8-.9-5.9s.4-4.1,1-5.9Zm273.3,421.8H9.1V93h334.8v376.8Z"/><path class="cls-2" d="m245.8,48.8c-.2-.6-.5-1.2-.9-1.7s-1-.9-1.6-1.2c-.6-.4-1.4-.5-2.3-.5s-1.7.1-2.3.5c-.6.2-1.2.7-1.6,1.2-.5.5-.7,1.1-1,1.7-.2.6-.4,1.4-.5,2h10.5c0-.6-.1-1.2-.3-2Zm27.5,13c.7,0,1.4,0,2-.1.6,0,1.1-.1,1.5-.2v-14.6c-.5-.4-1.1-.6-2-.9s-1.6-.4-2.5-.4c-3.8,0-5.7,2.6-5.7,7.8,0,2.5.6,4.5,1.7,6.1,1.2,1.6,2.8,2.3,5,2.3Zm-159.3-13c-.2-.6-.5-1.2-.9-1.7s-1-.9-1.6-1.2c-.6-.4-1.4-.5-2.3-.5s-1.7.1-2.3.5c-.6.2-1.2.7-1.6,1.2-.5.5-.7,1.1-1,1.7-.2.6-.4,1.4-.5,2h10.6c-.1-.6-.2-1.2-.4-2Z"/><path class="cls-1" d="m73.2,64.4c1.2,1.4,2.7,2.4,4.6,3.2,1.9.7,4.1,1.1,6.7,1.1,1.7,0,3.2-.1,4.7-.5,1.4-.2,2.6-.6,3.5-1l-1.1-6.6c-1,.4-2,.7-3.1.9s-2.2.2-3.1.2c-2.7,0-4.7-.7-5.8-2.1-1.1-1.4-1.6-3.3-1.6-5.9s.6-4.3,1.7-5.8,3-2.2,5.3-2.2c1.1,0,2.1.1,3.1.4.9.2,1.7.5,2.5.7l1.7-6.4c-1.2-.5-2.5-.9-3.7-1.1s-2.6-.4-4.2-.4c-2.3,0-4.3.4-6.2,1.2-1.9.7-3.3,1.9-4.6,3.2s-2.2,3-2.8,4.8c-.6,1.9-1,3.7-1,5.8s.2,4.1.9,5.9c.4,1.8,1.2,3.3,2.5,4.6Zm25.8.2c1.2,1.4,2.8,2.4,4.7,3.1,1.9.7,4.1,1.1,6.7,1.1,1,0,2,0,3.1-.1,1-.1,2-.2,2.8-.4.9-.1,1.7-.4,2.5-.6.7-.2,1.4-.5,1.7-.6l-1.1-6.6c-.9.4-2.1.7-3.5,1-1.5.2-2.8.4-4.3.4-2.3,0-4.2-.5-5.6-1.5s-2.1-2.4-2.3-4h18.3c0-.5.1-1,.1-1.5v-1.5c0-4.8-1.2-8.4-3.5-10.9s-5.6-3.7-9.6-3.7c-1.7,0-3.5.4-5.1,1s-3.1,1.6-4.3,2.8c-1.2,1.2-2.2,2.8-3.1,4.7-.7,1.9-1.1,4.1-1.1,6.7,0,2.1.2,4.1.9,5.8.6,1.9,1.5,3.4,2.7,4.8Zm5.2-15.8c.2-.6.6-1.2,1-1.7.5-.5,1-.9,1.6-1.2.6-.2,1.5-.5,2.3-.5,1,0,1.7.1,2.3.5.6.4,1.1.7,1.6,1.2.4.5.7,1.1.9,1.7.2.6.4,1.4.4,2h-10.6c0-.6.3-1.2.5-2Zm32.3-2.6c.4-.1.9-.2,1.6-.2.7-.1,1.4-.1,1.9-.1,1.1,0,2.2.1,3.1.2,1,.2,1.9.4,2.6.6l1.4-6.7c-.5-.1-1-.4-1.6-.5l-1.9-.4c-.6-.1-1.2-.1-1.9-.2-.6,0-1.1-.1-1.6-.1-2.5,0-4.6.2-6.6.6-2,.5-3.7,1-5.1,1.5v27h8v-21.7h.1Zm16.8,19.1c.9,1.1,2,1.9,3.5,2.5s3.2.9,5.4.9c1.7,0,3.2-.1,4.5-.5,1.2-.2,2.2-.6,3.2-1l-1.1-6.3c-.7.2-1.6.5-2.5.6s-1.9.2-2.7.2c-1.9,0-3-.5-3.6-1.5s-.9-2.4-.9-4.1v-10h9.6v-6.7h-9.6v-8.4l-8,1.4v24c0,1.9.1,3.5.5,5.1.2,1.4.8,2.7,1.7,3.8Zm22-25.7h8v28.6h-8v-28.6Zm4.1-3.5c1.4,0,2.5-.4,3.3-1.2,1-.9,1.5-2,1.5-3.5s-.5-2.6-1.5-3.5-2.1-1.2-3.3-1.2c-1.4,0-2.5.4-3.3,1.2-1,.9-1.5,2-1.5,3.5s.5,2.6,1.5,3.5c.8.7,1.9,1.2,3.3,1.2Zm19.6,10.1h10v-6.7h-10v-1.3c0-.7.1-1.5.2-2.1s.5-1.2.9-1.7.9-.9,1.6-1.1c.6-.2,1.5-.4,2.5-.4.7,0,1.5,0,2.1.1.7.1,1.4.2,2,.5l1.4-6.3c-.7-.2-1.5-.6-2.5-.9-1-.2-2.2-.4-3.7-.4-4.1,0-7.2,1.1-9.3,3.2-2.1,2.2-3.1,5.1-3.1,8.8v30.1h8v-21.8h-.1Zm18.7-10.1c1.4,0,2.5-.4,3.3-1.2,1-.9,1.5-2,1.5-3.5s-.5-2.6-1.5-3.5-2.1-1.2-3.3-1.2c-1.4,0-2.5.4-3.3,1.2-1,.9-1.5,2-1.5,3.5s.5,2.6,1.5,3.5c.8.7,1.9,1.2,3.3,1.2Zm-4,3.5h8v28.6h-8v-28.6Zm17.1,25c1.2,1.4,2.8,2.4,4.7,3.1,1.9.7,4.1,1.1,6.7,1.1,1,0,2,0,3.1-.1,1-.1,2-.2,2.8-.4.9-.1,1.7-.4,2.5-.6.7-.2,1.4-.5,1.7-.6l-1.1-6.6c-.9.4-2.1.7-3.5,1-1.5.2-2.8.4-4.3.4-2.3,0-4.2-.5-5.6-1.5s-2.1-2.4-2.3-4h18.3c0-.5.1-1,.1-1.5v-1.5c0-4.8-1.2-8.4-3.5-10.9s-5.6-3.7-9.6-3.7c-1.7,0-3.5.4-5.1,1s-3.1,1.6-4.3,2.8c-1.2,1.2-2.2,2.8-3.1,4.7-.7,1.9-1.1,4.1-1.1,6.7,0,2.1.2,4.1.9,5.8.6,1.9,1.5,3.4,2.7,4.8Zm5.2-15.8c.2-.6.6-1.2,1-1.7.5-.5,1-.9,1.6-1.2.6-.2,1.5-.5,2.3-.5,1,0,1.7.1,2.3.5.6.4,1.1.7,1.6,1.2.4.5.7,1.1.9,1.7.2.6.4,1.4.4,2h-10.6c.1-.6.2-1.2.5-2Zm26.3,16c1.2,1.2,2.8,2.2,4.7,3,1.9.7,4,1,6.3,1,1,0,2,0,3.1-.1s2.1-.2,3.1-.4c1-.1,2-.4,3-.5,1-.2,1.7-.4,2.5-.6V26l-8,1.4v12.8c-.9-.4-1.9-.7-2.7-.9-.9-.2-1.9-.4-3-.4-2,0-3.8.4-5.4,1-1.6.7-2.8,1.7-4,3-1.1,1.4-1.9,2.8-2.5,4.7-.6,1.9-.9,4-.9,6.3s.4,4.3,1,6.2c.6,1.9,1.6,3.3,2.8,4.7Zm10-19.1c.9,0,1.6.1,2.5.4.9.2,1.5.5,2,.9v14.7c-.4.1-.9.1-1.5.2-.6,0-1.2.1-2,.1-2.2,0-3.8-.7-4.9-2.2s-1.7-3.5-1.7-6.1c0-5.4,1.8-8,5.6-8Z"/></g></svg>