<?xml version="1.0" encoding="UTF-8"?><svg id="Layer_2" xmlns="http://www.w3.org/2000/svg" viewBox="0 0 302 294.45"><defs><style>.cls-1{fill:#00005b;}.cls-2{fill:#99f;}</style></defs><g id="Layer_1-2"><path class="cls-1" d="m53.48,0h195.04c29.57,0,53.48,23.91,53.48,53.48v187.49c0,29.57-23.91,53.48-53.48,53.48H53.48c-29.57,0-53.48-23.91-53.48-53.48V53.48C0,23.91,23.91,0,53.48,0Z"/><path class="cls-2" d="m71.73,206.49V77.01c0-.88.38-1.38,1.26-1.38,2.14,0,4.15,0,7.05-.13,3.02-.13,6.17-.13,9.56-.25s7.05-.13,10.95-.25,7.68-.13,11.45-.13c10.32,0,18.88,1.26,25.92,3.9,6.29,2.14,12.08,5.66,16.86,10.32,4.03,4.03,7.17,8.93,9.19,14.35,1.89,5.28,2.89,10.7,2.89,16.36,0,10.82-2.52,19.76-7.55,26.8-5.03,7.05-12.08,12.33-20.26,15.35-8.56,3.15-17.99,4.28-28.31,4.28-3.02,0-5.03,0-6.29-.13s-3.02-.13-5.41-.13v40.39c.13.88-.5,1.64-1.38,1.76h-24.41c-1.01,0-1.51-.5-1.51-1.64h0Zm27.43-106.58v42.28c1.76.13,3.4.25,4.91.25h6.67c4.91,0,9.82-.75,14.47-2.27,4.03-1.13,7.55-3.52,10.32-6.67,2.64-3.15,3.9-7.42,3.9-12.96.13-3.9-.88-7.8-2.89-11.2-2.14-3.27-5.16-5.79-8.81-7.17-4.66-1.89-9.69-2.64-14.85-2.52-3.27,0-6.17,0-8.56.13-2.52-.13-4.28,0-5.16.13h0Z"/><path class="cls-2" d="m184.47,107.21h22.02c1.26,0,2.27.88,2.64,2.01.38,1.01.63,2.01.76,3.15.25,1.26.5,2.64.63,3.9.13,1.38.25,2.89.25,4.53,3.78-4.4,8.31-8.05,13.46-10.82,5.79-3.27,12.46-4.91,19.13-4.91.88-.13,1.64.5,1.76,1.38v25.04c0,1.01-.63,1.38-2.01,1.38-4.53-.13-9.19.25-13.59,1.26-3.65.75-7.17,1.89-10.57,3.4-2.39,1.13-4.66,2.64-6.42,4.66v64.18c0,1.26-.5,1.76-1.64,1.76h-24.79c-1.01.13-1.89-.5-2.01-1.51v-70.22c0-3.02,0-6.17-.13-9.44s-.13-6.54-.25-9.82c0-2.89-.25-5.66-.5-8.56-.13-.63.25-1.26.88-1.38,0-.13.25-.13.38,0h0Z"/></g></svg>